<?xml version="1.0" standalone="no"?>
<!DOCTYPE svg PUBLIC "-//W3C//DTD SVG 20010904//EN"
 "http://www.w3.org/TR/2001/REC-SVG-20010904/DTD/svg10.dtd">
<svg version="1.0" xmlns="http://www.w3.org/2000/svg"
 width="300.000000pt" height="300.000000pt" viewBox="0 0 300.000000 300.000000"
 preserveAspectRatio="xMidYMid meet">

<g transform="translate(0.000000,300.000000) scale(0.100000,-0.100000)"
fill="#000000" stroke="none">
<path d="M603 1933 c-22 -8 -14 -21 17 -28 47 -10 47 -15 14 -100 -11 -29 -26
-108 -39 -206 -2 -20 -14 -78 -25 -130 -11 -52 -25 -125 -30 -164 -29 -230
-43 -318 -63 -385 -17 -56 -22 -101 -22 -180 0 -97 2 -109 28 -153 24 -41 31
-46 47 -37 16 8 22 6 32 -12 7 -13 13 -25 14 -28 1 -3 5 -15 9 -26 6 -19 10
-20 30 -10 13 6 27 21 30 33 6 25 77 42 99 24 10 -9 23 -3 56 24 23 19 44 35
47 35 3 0 23 -16 45 -36 22 -20 54 -42 71 -49 29 -12 32 -11 62 21 31 33 85
48 85 24 0 -18 -38 -83 -67 -116 -32 -35 -89 -68 -103 -59 -6 3 -10 2 -10 -3
0 -6 -12 -13 -27 -16 -63 -15 -199 -60 -213 -72 -8 -6 -44 -26 -80 -44 -36
-18 -78 -43 -93 -56 -16 -13 -33 -24 -38 -24 -15 0 -199 -121 -199 -131 0 -5
191 -9 455 -9 l456 0 -15 28 c-8 15 -39 60 -70 100 -31 41 -56 78 -56 83 0 13
12 11 34 -6 11 -8 58 -27 105 -42 76 -25 101 -28 216 -27 112 0 137 3 179 22
27 12 51 21 53 18 5 -5 -38 -58 -96 -118 -24 -26 -42 -50 -39 -53 2 -3 213 -4
467 -3 l462 3 -91 55 c-127 76 -154 91 -245 132 -130 58 -140 62 -150 63 -5 0
-41 17 -78 38 -54 30 -75 36 -105 32 -29 -4 -50 3 -97 28 l-60 32 0 78 c1 42
-2 77 -6 77 -16 0 -26 -129 -13 -176 3 -12 22 -29 42 -38 21 -9 48 -26 62 -36
25 -19 25 -19 5 -34 -11 -8 -58 -29 -105 -45 -76 -28 -98 -31 -198 -31 -97 0
-123 4 -195 29 -107 37 -155 62 -191 100 -33 35 -32 38 19 55 53 19 115 132
142 262 9 44 18 81 20 83 1 2 26 -18 55 -46 60 -56 183 -113 245 -113 21 0 63
7 93 15 30 8 69 18 87 21 l32 6 -10 -35 c-6 -23 -6 -44 1 -63 15 -38 68 -84
97 -84 13 0 23 -5 23 -11 0 -6 6 -9 13 -6 6 2 24 -6 39 -18 26 -22 119 -42
138 -30 6 3 10 1 10 -4 0 -6 18 -11 39 -11 22 0 43 -4 46 -10 3 -5 20 -3 41 8
39 18 38 18 69 -33 9 -16 14 -16 46 -2 19 8 50 34 69 58 47 61 68 80 75 70 8
-14 -24 -103 -48 -129 -11 -12 -15 -22 -9 -22 6 0 14 5 18 11 3 6 16 8 29 5
40 -10 85 56 109 164 20 84 16 197 -11 350 -38 223 -45 281 -53 500 -5 129
-10 248 -10 263 l0 28 65 -2 c71 -3 84 3 65 26 -8 10 -31 15 -70 15 -31 0 -59
2 -62 5 -3 3 -50 8 -104 11 -55 2 -125 10 -156 18 -32 7 -58 9 -58 5 0 -15
-44 -10 -67 6 -16 11 -28 13 -40 6 -10 -5 -37 -17 -60 -26 -24 -10 -43 -24
-43 -32 0 -17 -2 -17 48 7 46 22 62 20 62 -9 0 -17 29 -51 43 -51 4 0 7 16 7
35 0 19 2 35 5 35 16 0 65 -32 65 -43 0 -6 7 -24 14 -39 8 -15 22 -84 31 -152
20 -161 13 -209 -54 -342 -28 -56 -51 -105 -51 -109 0 -3 -29 -48 -64 -98 -92
-131 -209 -215 -358 -255 -139 -38 -160 -38 -258 3 -83 35 -95 44 -209 158
-67 67 -129 133 -138 147 -9 14 -36 47 -60 74 -24 26 -43 56 -43 66 0 18 -66
89 -85 90 -18 2 -53 41 -71 79 -27 56 -34 101 -27 175 5 57 11 75 36 102 16
19 36 34 44 34 22 0 64 -51 58 -70 -4 -12 1 -19 15 -23 13 -3 18 -10 14 -21
-11 -27 12 -17 26 12 7 15 13 29 13 32 -1 3 24 25 54 50 30 25 94 82 142 128
65 61 94 82 114 82 33 0 94 -24 119 -47 10 -9 21 -13 26 -9 10 11 -44 55 -76
62 -15 3 -38 10 -51 15 -19 8 -21 12 -11 24 18 21 12 24 -53 29 -31 3 -104 14
-162 26 -58 12 -109 19 -114 16 -15 -9 -217 39 -238 56 -8 6 -16 8 -20 5 -3
-3 -20 0 -37 7 -17 7 -37 11 -43 9z m404 -189 c15 -20 38 -46 51 -57 12 -11
22 -27 22 -34 0 -25 -18 -13 -46 30 -15 24 -40 53 -56 63 -31 21 -36 34 -13
34 8 0 27 -16 42 -36z m12 -154 c-1 -13 -1 -13 -6 -1 -3 8 -19 26 -34 39 -16
13 -29 30 -29 38 0 9 -4 13 -9 9 -6 -3 -15 3 -20 14 -23 41 -9 34 44 -24 30
-33 54 -67 54 -75z"/>
<path d="M1200 1579 c-55 -19 -100 -53 -88 -65 4 -3 19 2 35 13 15 11 47 25
69 32 36 12 49 11 93 -4 67 -22 89 -13 31 12 -71 32 -82 32 -140 12z"/>
<path d="M1875 1485 c-22 -8 -41 -15 -42 -15 -2 0 -3 -9 -3 -20 0 -20 0 -20
29 1 25 19 38 21 83 16 29 -4 75 -18 101 -32 57 -29 57 -29 57 -12 0 15 -70
51 -120 61 -19 4 -42 9 -50 11 -8 2 -33 -2 -55 -10z"/>
<path d="M1297 1479 c-30 -18 -47 -65 -47 -132 0 -140 94 -103 107 41 8 85
-14 118 -60 91z"/>
<path d="M810 1443 c0 -6 5 -15 10 -18 16 -10 12 -35 -7 -42 -20 -7 -33 -23
-33 -38 1 -5 7 -2 15 9 8 11 21 16 30 13 11 -5 15 0 15 21 0 27 -29 80 -30 55z"/>
<path d="M1844 1358 c-37 -57 -73 -148 -67 -165 3 -7 17 -16 31 -20 34 -8 76
39 97 109 29 103 -12 154 -61 76z"/>
<path d="M843 1310 c0 -25 2 -35 4 -22 2 12 2 32 0 45 -2 12 -4 2 -4 -23z"/>
<path d="M1364 999 c15 -76 80 -139 144 -139 37 0 61 10 110 47 50 37 28 46
-29 11 -86 -54 -143 -36 -189 60 -28 58 -46 68 -36 21z"/>
</g>
</svg>
